<mxfile host="Electron" modified="2023-12-20T13:40:02.331Z" agent="Mozilla/5.0 (Windows NT 10.0; Win64; x64) AppleWebKit/537.36 (KHTML, like Gecko) draw.io/22.1.2 Chrome/114.0.5735.289 Electron/25.9.4 Safari/537.36" etag="lJkjllLSBOnMfFlunLy-" version="22.1.2" type="device">
  <diagram name="Page-1" id="SwVwc6btx6GhK7ysHuHt">
    <mxGraphModel dx="2103" dy="1775" grid="1" gridSize="10" guides="1" tooltips="1" connect="1" arrows="1" fold="1" page="1" pageScale="1" pageWidth="827" pageHeight="1169" math="0" shadow="0">
      <root>
        <mxCell id="0" />
        <mxCell id="1" parent="0" />
        <mxCell id="2W1vsx3_o9bXngoqDVbw-1" value="&lt;p style=&quot;margin:0px;margin-top:4px;text-align:center;&quot;&gt;&lt;b&gt;Course&lt;/b&gt;&lt;/p&gt;&lt;hr size=&quot;1&quot;/&gt;&lt;p style=&quot;margin:0 0 0 4px;line-height:1.6;&quot;&gt;+ Course(String, String, String, int, byte, int, int, String): &lt;/p&gt;&lt;hr size=&quot;1&quot;/&gt;&lt;p style=&quot;margin:0 0 0 4px;line-height:1.6;&quot;&gt;- courseName: String&lt;br/&gt;- courseCode: String&lt;br/&gt;- courseCredit: int&lt;br/&gt;- courseType: String&lt;br/&gt;- preRequisiteCourses: List&amp;lt;Course&amp;gt;&lt;br/&gt;- hour: int&lt;br/&gt;- day: String&lt;br/&gt;- numberOfStudents: int&lt;br/&gt;- lecturer: Lecturer&lt;br/&gt;- laboratorySections: List&amp;lt;LaboratorySection&amp;gt;&lt;/p&gt;&lt;hr size=&quot;1&quot;/&gt;&lt;p style=&quot;margin:0 0 0 4px;line-height:1.6;&quot;&gt;+ hasCapacity(): boolean&lt;br/&gt;+ semester(): byte&lt;br/&gt;+ addPreRequisiteCourse(Course): void&lt;/p&gt;&lt;hr size=&quot;1&quot;/&gt;&lt;p style=&quot;margin:0 0 0 4px;line-height:1.6;&quot;&gt; courseType: String&lt;br/&gt; hour: int&lt;br/&gt; courseCode: String&lt;br/&gt; courseName: String&lt;br/&gt; courseCredit: int&lt;br/&gt; numberOfStudents: int&lt;br/&gt; day: String&lt;br/&gt; preRequisiteCourses: List&amp;lt;Course&amp;gt;&lt;br/&gt; lecturer: Lecturer&lt;br/&gt; laboratorySections: List&amp;lt;LaboratorySection&amp;gt;&lt;/p&gt;" style="verticalAlign=top;align=left;overflow=fill;fontSize=14;fontFamily=Helvetica;html=1;rounded=0;shadow=0;comic=0;labelBackgroundColor=none;strokeWidth=1;" vertex="1" parent="1">
          <mxGeometry x="-564" y="-193" width="392" height="623" as="geometry" />
        </mxCell>
      </root>
    </mxGraphModel>
  </diagram>
</mxfile>
